<svg width="739" height="163" viewBox="0 0 739 163" fill="none" xmlns="http://www.w3.org/2000/svg">
<g clip-path="url(#clip0_1_2)">
<rect width="739" height="163" rx="10" fill="#1D0269"/>
<path fill-rule="evenodd" clip-rule="evenodd" d="M784 -9H18V231H784V-9ZM58.3409 29.7955C60.9773 31.5682 62.4773 34.0682 62.8409 37.2955H73C72.9091 33.5455 71.8182 30.2273 69.7273 27.3409C67.6364 24.4318 64.7727 22.1477 61.1364 20.4886C57.5227 18.8295 53.3523 18 48.625 18C43.9432 18 39.7386 18.8409 36.0114 20.5227C32.2841 22.1818 29.3295 24.5114 27.1477 27.5114C24.9659 30.5114 23.875 34.0227 23.875 38.0455C23.875 42.9091 25.5 46.8182 28.75 49.7727C32.0227 52.7273 36.4545 54.9659 42.0455 56.4886L50.2955 58.7386C52.7955 59.3977 55.0341 60.1591 57.0114 61.0227C59.0114 61.8864 60.5909 62.9773 61.75 64.2955C62.9318 65.6136 63.5227 67.3068 63.5227 69.375C63.5227 71.6477 62.8523 73.6364 61.5114 75.3409C60.1705 77.0227 58.3295 78.3409 55.9886 79.2955C53.6705 80.2273 51.0227 80.6932 48.0455 80.6932C45.3409 80.6932 42.8523 80.2955 40.5795 79.5C38.3295 78.6818 36.4773 77.4432 35.0227 75.7841C33.5909 74.1023 32.7727 72 32.5682 69.4773H22C22.2273 73.6818 23.4205 77.3182 25.5795 80.3864C27.7386 83.4318 30.7273 85.7841 34.5455 87.4432C38.3636 89.1023 42.8864 89.9318 48.1136 89.9318C53.5682 89.9318 58.2159 89.0455 62.0568 87.2727C65.9205 85.5 68.8636 83.0795 70.8864 80.0114C72.9318 76.9432 73.9545 73.4318 73.9545 69.4773C73.9545 66.3409 73.3295 63.6477 72.0795 61.3977C70.8523 59.1477 69.2386 57.2614 67.2386 55.7386C65.2386 54.2159 63.0682 52.9886 60.7273 52.0568C58.3864 51.125 56.1023 50.3864 53.875 49.8409L47.0568 48.0682C45.6932 47.7273 44.2727 47.2955 42.7955 46.7727C41.3182 46.2273 39.9318 45.5568 38.6364 44.7614C37.3636 43.9432 36.3295 42.9318 35.5341 41.7273C34.7614 40.5227 34.375 39.0909 34.375 37.4318C34.375 35.4545 34.9432 33.6932 36.0795 32.1477C37.2386 30.5795 38.8636 29.3523 40.9545 28.4659C43.0455 27.5568 45.5227 27.1023 48.3864 27.1023C52.3864 27.1023 55.7045 28 58.3409 29.7955ZM86.5426 18.9545V88.7727H130.724V79.7046H97.0767V58.3295H128.031V49.2955H97.0767V28.0227H130.315V18.9545H86.5426ZM144.386 18.9545V88.7727H154.92V62.3523H169.239C169.466 62.3523 169.693 62.3507 169.917 62.3475L184.102 88.7727H196.102L180.65 60.5557C181.366 60.287 182.051 59.9881 182.705 59.6591C186.295 57.8636 188.977 55.3523 190.75 52.125C192.545 48.875 193.443 45.1136 193.443 40.8409C193.443 36.5455 192.557 32.7614 190.784 29.4886C189.011 26.1932 186.33 23.6136 182.739 21.75C179.17 19.8864 174.682 18.9545 169.273 18.9545H144.386ZM154.92 53.2841H168.284C171.693 53.2841 174.466 52.7955 176.602 51.8182C178.761 50.8409 180.341 49.4205 181.341 47.5568C182.341 45.6932 182.841 43.4545 182.841 40.8409C182.841 38.2045 182.33 35.9205 181.307 33.9886C180.307 32.0568 178.727 30.5795 176.568 29.5568C174.432 28.5114 171.625 27.9886 168.148 27.9886H154.92V53.2841ZM230.108 75.8182L210.676 18.9545H199.29L224.415 88.7727H236.585L261.71 18.9545H250.324L230.892 75.8182H230.108ZM271.793 18.9545V88.7727H315.974V79.7046H282.327V58.3295H313.281V49.2955H282.327V28.0227H315.565V18.9545H271.793ZM363.216 29.7955C365.852 31.5682 367.352 34.0682 367.716 37.2955H377.875C377.784 33.5455 376.693 30.2273 374.602 27.3409C372.511 24.4318 369.648 22.1477 366.011 20.4886C362.398 18.8295 358.227 18 353.5 18C348.818 18 344.614 18.8409 340.886 20.5227C337.159 22.1818 334.205 24.5114 332.023 27.5114C329.841 30.5114 328.75 34.0227 328.75 38.0455C328.75 42.9091 330.375 46.8182 333.625 49.7727C336.898 52.7273 341.33 54.9659 346.92 56.4886L355.17 58.7386C357.67 59.3977 359.909 60.1591 361.886 61.0227C363.886 61.8864 365.466 62.9773 366.625 64.2955C367.807 65.6136 368.398 67.3068 368.398 69.375C368.398 71.6477 367.727 73.6364 366.386 75.3409C365.045 77.0227 363.205 78.3409 360.864 79.2955C358.545 80.2273 355.898 80.6932 352.92 80.6932C350.216 80.6932 347.727 80.2955 345.455 79.5C343.205 78.6818 341.352 77.4432 339.898 75.7841C338.466 74.1023 337.648 72 337.443 69.4773H326.875C327.102 73.6818 328.295 77.3182 330.455 80.3864C332.614 83.4318 335.602 85.7841 339.42 87.4432C343.239 89.1023 347.761 89.9318 352.989 89.9318C358.443 89.9318 363.091 89.0455 366.932 87.2727C370.795 85.5 373.739 83.0795 375.761 80.0114C377.807 76.9432 378.83 73.4318 378.83 69.4773C378.83 66.3409 378.205 63.6477 376.955 61.3977C375.727 59.1477 374.114 57.2614 372.114 55.7386C370.114 54.2159 367.943 52.9886 365.602 52.0568C363.261 51.125 360.977 50.3864 358.75 49.8409L351.932 48.0682C350.568 47.7273 349.148 47.2955 347.67 46.7727C346.193 46.2273 344.807 45.5568 343.511 44.7614C342.239 43.9432 341.205 42.9318 340.409 41.7273C339.636 40.5227 339.25 39.0909 339.25 37.4318C339.25 35.4545 339.818 33.6932 340.955 32.1477C342.114 30.5795 343.739 29.3523 345.83 28.4659C347.92 27.5568 350.398 27.1023 353.261 27.1023C357.261 27.1023 360.58 28 363.216 29.7955ZM427.358 88.7727V18.9545H416.824V88.7727H427.358ZM439.256 18.9545V28.0227H461.006V88.7727H471.506V28.0227H493.29V18.9545H439.256ZM530.636 18.9545V88.7727H541.17V58.3295H575.977V88.7727H586.545V18.9545H575.977V49.2955H541.17V18.9545H530.636ZM657.352 18.9545H646.784V64.0227C646.784 67.1818 646.091 69.9886 644.705 72.4432C643.341 74.8977 641.364 76.8296 638.773 78.2386C636.205 79.625 633.148 80.3182 629.602 80.3182C626.08 80.3182 623.034 79.625 620.466 78.2386C617.898 76.8296 615.909 74.8977 614.5 72.4432C613.114 69.9886 612.42 67.1818 612.42 64.0227V18.9545H601.886V64.875C601.886 69.7614 603.034 74.0909 605.33 77.8636C607.625 81.6136 610.852 84.5682 615.011 86.7273C619.17 88.8636 624.034 89.9318 629.602 89.9318C635.193 89.9318 640.068 88.8636 644.227 86.7273C648.386 84.5682 651.614 81.6136 653.909 77.8636C656.205 74.0909 657.352 69.7614 657.352 64.875V18.9545ZM672.668 18.9545V88.7727H699.429C704.838 88.7727 709.281 87.9546 712.759 86.3182C716.236 84.6591 718.804 82.4205 720.463 79.6023C722.145 76.7614 722.986 73.5568 722.986 69.9886C722.986 66.375 722.259 63.3068 720.804 60.7841C719.349 58.2614 717.509 56.3182 715.281 54.9545C713.077 53.5682 710.815 52.8182 708.497 52.7045V52.0227C710.634 51.4773 712.588 50.6136 714.361 49.4318C716.156 48.2273 717.588 46.6364 718.656 44.6591C719.724 42.6591 720.259 40.2045 720.259 37.2955C720.259 33.8409 719.452 30.7386 717.838 27.9886C716.224 25.2159 713.793 23.0227 710.543 21.4091C707.293 19.7727 703.19 18.9545 698.236 18.9545H672.668ZM698.406 79.7386H683.202V57.375H698.781C701.599 57.375 704.031 57.9205 706.077 59.0114C708.145 60.1023 709.736 61.5682 710.849 63.4091C711.963 65.25 712.52 67.2727 712.52 69.4773C712.52 72.4091 711.429 74.8523 709.247 76.8068C707.065 78.7614 703.452 79.7386 698.406 79.7386ZM697.315 49.1591H683.202V27.9205H697.588C701.77 27.9205 704.872 28.8977 706.895 30.8523C708.918 32.8068 709.929 35.2273 709.929 38.1136C709.929 40.3636 709.361 42.3182 708.224 43.9773C707.111 45.6136 705.599 46.8864 703.69 47.7955C701.804 48.7045 699.679 49.1591 697.315 49.1591Z" fill="white"/>
<path d="M110.46 121.233C110.466 120.375 110.188 119.719 109.625 119.264C109.068 118.81 108.29 118.582 107.29 118.582C106.574 118.582 105.935 118.696 105.372 118.923C104.815 119.145 104.361 119.452 104.009 119.844C103.662 120.23 103.449 120.67 103.369 121.165C103.295 121.58 103.332 121.937 103.48 122.239C103.634 122.54 103.852 122.793 104.136 122.997C104.426 123.196 104.744 123.364 105.091 123.5C105.438 123.631 105.773 123.739 106.097 123.824L107.733 124.267C108.261 124.403 108.798 124.588 109.344 124.821C109.889 125.054 110.381 125.361 110.818 125.741C111.256 126.122 111.582 126.594 111.798 127.156C112.014 127.719 112.057 128.392 111.926 129.176C111.756 130.165 111.355 131.043 110.724 131.81C110.094 132.577 109.261 133.182 108.227 133.625C107.193 134.068 105.994 134.29 104.631 134.29C103.324 134.29 102.224 134.082 101.332 133.668C100.446 133.253 99.7955 132.665 99.3807 131.903C98.9659 131.136 98.8182 130.227 98.9375 129.176H101.588C101.526 129.807 101.639 130.332 101.929 130.753C102.224 131.168 102.639 131.477 103.173 131.682C103.707 131.881 104.313 131.98 104.989 131.98C105.739 131.98 106.423 131.864 107.043 131.631C107.662 131.392 108.173 131.062 108.577 130.642C108.98 130.216 109.227 129.719 109.318 129.151C109.409 128.634 109.335 128.21 109.097 127.881C108.864 127.551 108.511 127.278 108.04 127.062C107.574 126.847 107.043 126.656 106.446 126.491L104.477 125.929C103.142 125.548 102.131 124.989 101.443 124.25C100.756 123.511 100.509 122.534 100.702 121.318C100.872 120.312 101.293 119.435 101.963 118.685C102.634 117.935 103.469 117.352 104.469 116.938C105.469 116.517 106.554 116.307 107.724 116.307C108.906 116.307 109.912 116.517 110.741 116.938C111.571 117.358 112.185 117.937 112.582 118.676C112.98 119.415 113.119 120.267 113 121.233H110.46ZM114.272 134L117.17 116.545H128.113L127.738 118.812H119.428L118.542 124.131H126.281L125.906 126.389H118.167L117.281 131.733H125.692L125.317 134H114.272ZM128.733 134L131.631 116.545H137.852C139.205 116.545 140.287 116.778 141.099 117.244C141.918 117.705 142.48 118.347 142.787 119.17C143.099 119.989 143.168 120.937 142.991 122.017C142.81 123.085 142.426 124.023 141.841 124.83C141.261 125.636 140.486 126.267 139.514 126.722C138.548 127.17 137.389 127.395 136.037 127.395H131.324L131.716 125.128H136.19C137.048 125.128 137.764 125.006 138.338 124.761C138.912 124.517 139.361 124.162 139.685 123.696C140.014 123.23 140.23 122.67 140.332 122.017C140.44 121.352 140.409 120.781 140.239 120.304C140.068 119.821 139.736 119.452 139.241 119.196C138.747 118.935 138.068 118.804 137.205 118.804H133.898L131.366 134H128.733ZM138.653 126.125L141.662 134H138.662L135.73 126.125H138.653ZM148.273 116.545L150.788 130.761H150.984L158.185 116.545H161.032L151.853 134H148.81L145.427 116.545H148.273ZM166.186 116.545L163.288 134H160.655L163.553 116.545H166.186ZM183.555 122.222H180.947C180.936 121.653 180.831 121.153 180.632 120.722C180.433 120.284 180.161 119.918 179.814 119.622C179.473 119.321 179.072 119.094 178.612 118.94C178.152 118.787 177.655 118.71 177.121 118.71C176.092 118.71 175.126 118.972 174.223 119.494C173.32 120.017 172.55 120.778 171.913 121.778C171.277 122.778 170.839 123.997 170.601 125.435C170.368 126.832 170.396 128.006 170.686 128.955C170.976 129.903 171.464 130.622 172.152 131.111C172.845 131.594 173.678 131.835 174.649 131.835C175.217 131.835 175.771 131.761 176.311 131.614C176.857 131.46 177.362 131.236 177.828 130.94C178.294 130.645 178.706 130.284 179.064 129.858C179.428 129.426 179.712 128.932 179.916 128.375H182.558C182.274 129.239 181.874 130.028 181.357 130.744C180.839 131.46 180.229 132.08 179.524 132.602C178.82 133.125 178.047 133.528 177.206 133.812C176.365 134.097 175.476 134.239 174.538 134.239C172.999 134.239 171.686 133.872 170.601 133.139C169.521 132.401 168.746 131.349 168.274 129.986C167.808 128.622 167.729 126.997 168.036 125.111C168.348 123.276 168.945 121.702 169.825 120.389C170.712 119.071 171.791 118.062 173.064 117.364C174.342 116.659 175.723 116.307 177.206 116.307C178.143 116.307 179.001 116.44 179.78 116.707C180.558 116.969 181.229 117.355 181.791 117.866C182.359 118.372 182.797 118.991 183.104 119.724C183.411 120.452 183.561 121.284 183.555 122.222ZM184.772 134L187.67 116.545H198.613L198.238 118.812H189.928L189.042 124.131H196.781L196.406 126.389H188.667L187.781 131.733H196.192L195.817 134H184.772ZM211.312 134H205.585L208.482 116.545H214.235C215.951 116.545 217.369 116.903 218.488 117.619C219.607 118.33 220.391 119.347 220.84 120.67C221.289 121.989 221.36 123.565 221.053 125.401C220.758 127.196 220.178 128.736 219.315 130.02C218.457 131.298 217.352 132.281 215.999 132.969C214.647 133.656 213.085 134 211.312 134ZM208.61 131.699H211.423C212.752 131.699 213.903 131.44 214.874 130.923C215.852 130.406 216.644 129.656 217.252 128.673C217.86 127.69 218.281 126.494 218.513 125.085C218.741 123.744 218.721 122.611 218.454 121.685C218.187 120.753 217.67 120.048 216.903 119.571C216.136 119.088 215.116 118.847 213.843 118.847H210.732L208.61 131.699ZM239.49 125.443C239.183 127.278 238.587 128.852 237.7 130.165C236.82 131.477 235.74 132.486 234.462 133.19C233.189 133.889 231.814 134.239 230.337 134.239C228.797 134.239 227.482 133.872 226.391 133.139C225.305 132.401 224.527 131.352 224.055 129.994C223.584 128.631 223.504 127.006 223.817 125.119C224.124 123.284 224.717 121.71 225.598 120.398C226.484 119.08 227.567 118.068 228.845 117.364C230.129 116.659 231.516 116.307 233.004 116.307C234.533 116.307 235.837 116.676 236.916 117.415C238.001 118.148 238.78 119.199 239.251 120.568C239.723 121.932 239.803 123.557 239.49 125.443ZM236.925 125.119C237.158 123.727 237.129 122.557 236.839 121.608C236.555 120.653 236.07 119.932 235.382 119.443C234.695 118.955 233.865 118.71 232.893 118.71C231.859 118.71 230.891 118.972 229.987 119.494C229.089 120.017 228.322 120.778 227.686 121.778C227.05 122.778 226.615 124 226.382 125.443C226.143 126.835 226.169 128.006 226.459 128.955C226.749 129.903 227.237 130.622 227.925 131.111C228.618 131.594 229.45 131.835 230.422 131.835C231.45 131.835 232.413 131.577 233.311 131.06C234.214 130.537 234.984 129.778 235.621 128.784C236.257 127.784 236.692 126.562 236.925 125.119ZM258.336 116.545L255.438 134H253.018L246.276 121.199H246.123L243.984 134H241.35L244.248 116.545H246.685L253.435 129.364H253.597L255.728 116.545H258.336ZM259.28 134L262.178 116.545H273.121L272.746 118.812H264.436L263.55 124.131H271.288L270.913 126.389H263.175L262.288 131.733H270.7L270.325 134H259.28ZM280.092 134L282.99 116.545H289.212C290.564 116.545 291.646 116.778 292.459 117.244C293.277 117.705 293.839 118.347 294.146 119.17C294.459 119.989 294.527 120.937 294.351 122.017C294.169 123.085 293.786 124.023 293.2 124.83C292.621 125.636 291.845 126.267 290.874 126.722C289.908 127.17 288.749 127.395 287.396 127.395H282.683L283.075 125.128H287.55C288.408 125.128 289.124 125.006 289.697 124.761C290.271 124.517 290.72 124.162 291.044 123.696C291.374 123.23 291.589 122.67 291.692 122.017C291.8 121.352 291.768 120.781 291.598 120.304C291.428 119.821 291.095 119.452 290.601 119.196C290.107 118.935 289.428 118.804 288.564 118.804H285.257L282.726 134H280.092ZM290.013 126.125L293.021 134H290.021L287.089 126.125H290.013ZM301.163 116.545L298.265 134H295.631L298.529 116.545H301.163ZM315.881 122.06C315.808 121.543 315.677 121.08 315.489 120.67C315.308 120.256 315.06 119.903 314.748 119.614C314.435 119.324 314.06 119.102 313.623 118.949C313.185 118.79 312.677 118.71 312.097 118.71C311.109 118.71 310.163 118.963 309.259 119.469C308.362 119.974 307.589 120.716 306.941 121.693C306.293 122.665 305.853 123.855 305.62 125.264C305.381 126.679 305.398 127.875 305.671 128.852C305.944 129.83 306.427 130.571 307.12 131.077C307.813 131.582 308.671 131.835 309.694 131.835C310.643 131.835 311.515 131.642 312.31 131.256C313.106 130.869 313.768 130.324 314.296 129.619C314.83 128.909 315.174 128.074 315.327 127.114L315.984 127.241H310.989L311.364 125.068H318.234L317.884 127.054C317.651 128.526 317.134 129.801 316.333 130.881C315.532 131.955 314.535 132.784 313.342 133.369C312.154 133.949 310.853 134.239 309.438 134.239C307.859 134.239 306.535 133.875 305.467 133.148C304.398 132.42 303.643 131.389 303.2 130.054C302.762 128.713 302.697 127.122 303.004 125.281C303.225 123.889 303.62 122.639 304.188 121.531C304.762 120.423 305.464 119.483 306.293 118.71C307.123 117.932 308.046 117.338 309.063 116.929C310.086 116.514 311.16 116.307 312.285 116.307C313.228 116.307 314.083 116.446 314.85 116.724C315.623 117.003 316.288 117.398 316.844 117.909C317.401 118.42 317.83 119.028 318.131 119.733C318.433 120.432 318.583 121.207 318.583 122.06H315.881ZM320.077 134L322.974 116.545H325.608L324.347 124.131H333.048L334.31 116.545H336.952L334.054 134H331.412L332.673 126.389H323.972L322.71 134H320.077ZM339.551 118.812L339.926 116.545H353.435L353.06 118.812H347.614L345.091 134H342.466L344.989 118.812H339.551ZM359.874 134L362.771 116.545H373.595L373.22 118.812H365.03L364.143 124.131H371.558L371.183 126.389H363.768L362.507 134H359.874ZM379.467 116.545L376.57 134H373.936L376.834 116.545H379.467ZM380.405 134L383.303 116.545H389.524C390.876 116.545 391.959 116.778 392.771 117.244C393.589 117.705 394.152 118.347 394.459 119.17C394.771 119.989 394.839 120.937 394.663 122.017C394.482 123.085 394.098 124.023 393.513 124.83C392.933 125.636 392.158 126.267 391.186 126.722C390.22 127.17 389.061 127.395 387.709 127.395H382.996L383.388 125.128H387.862C388.72 125.128 389.436 125.006 390.01 124.761C390.584 124.517 391.033 124.162 391.357 123.696C391.686 123.23 391.902 122.67 392.004 122.017C392.112 121.352 392.081 120.781 391.911 120.304C391.74 119.821 391.408 119.452 390.913 119.196C390.419 118.935 389.74 118.804 388.876 118.804H385.57L383.038 134H380.405ZM390.325 126.125L393.334 134H390.334L387.402 126.125H390.325ZM407.577 121.233C407.583 120.375 407.305 119.719 406.742 119.264C406.185 118.81 405.407 118.582 404.407 118.582C403.691 118.582 403.052 118.696 402.489 118.923C401.933 119.145 401.478 119.452 401.126 119.844C400.779 120.23 400.566 120.67 400.487 121.165C400.413 121.58 400.45 121.937 400.597 122.239C400.751 122.54 400.969 122.793 401.254 122.997C401.543 123.196 401.862 123.364 402.208 123.5C402.555 123.631 402.89 123.739 403.214 123.824L404.85 124.267C405.379 124.403 405.915 124.588 406.461 124.821C407.006 125.054 407.498 125.361 407.935 125.741C408.373 126.122 408.7 126.594 408.915 127.156C409.131 127.719 409.174 128.392 409.043 129.176C408.873 130.165 408.472 131.043 407.842 131.81C407.211 132.577 406.379 133.182 405.344 133.625C404.31 134.068 403.112 134.29 401.748 134.29C400.441 134.29 399.342 134.082 398.45 133.668C397.563 133.253 396.913 132.665 396.498 131.903C396.083 131.136 395.935 130.227 396.055 129.176H398.705C398.643 129.807 398.756 130.332 399.046 130.753C399.342 131.168 399.756 131.477 400.29 131.682C400.825 131.881 401.43 131.98 402.106 131.98C402.856 131.98 403.54 131.864 404.16 131.631C404.779 131.392 405.29 131.062 405.694 130.642C406.097 130.216 406.344 129.719 406.435 129.151C406.526 128.634 406.452 128.21 406.214 127.881C405.981 127.551 405.629 127.278 405.157 127.062C404.691 126.847 404.16 126.656 403.563 126.491L401.594 125.929C400.259 125.548 399.248 124.989 398.56 124.25C397.873 123.511 397.626 122.534 397.819 121.318C397.989 120.312 398.41 119.435 399.08 118.685C399.751 117.935 400.586 117.352 401.586 116.938C402.586 116.517 403.671 116.307 404.842 116.307C406.023 116.307 407.029 116.517 407.859 116.938C408.688 117.358 409.302 117.937 409.7 118.676C410.097 119.415 410.237 120.267 410.117 121.233H407.577ZM413.051 118.812L413.426 116.545H426.935L426.56 118.812H421.114L418.591 134H415.966L418.489 118.812H413.051ZM435.036 118.812L435.411 116.545H448.919L448.544 118.812H443.098L440.575 134H437.95L440.473 118.812H435.036ZM454.538 116.545L451.64 134H449.006L451.904 116.545H454.538ZM458.373 116.545H461.569L464.893 130.114H465.097L472.887 116.545H476.083L473.185 134H470.68L472.785 121.369H472.623L465.379 133.974H463.29L460.256 121.361H460.094L457.981 134H455.475L458.373 116.545ZM477.014 134L479.912 116.545H490.855L490.48 118.812H482.17L481.284 124.131H489.023L488.648 126.389H480.909L480.023 131.733H488.435L488.06 134H477.014ZM494.995 131.614L494.697 132.543C494.498 133.224 494.237 133.935 493.913 134.673C493.594 135.412 493.276 136.099 492.958 136.736C492.64 137.378 492.387 137.886 492.2 138.261H490.393C490.518 137.909 490.691 137.435 490.913 136.838C491.14 136.241 491.379 135.574 491.629 134.835C491.879 134.097 492.097 133.341 492.285 132.568L492.54 131.614H494.995ZM504.46 134L507.357 116.545H518.3L517.925 118.812H509.616L508.729 124.131H516.468L516.093 126.389H508.354L507.468 131.733H515.88L515.505 134H504.46ZM523.344 116.545L525.858 130.761H526.054L533.256 116.545H536.102L526.923 134H523.881L520.497 116.545H523.344ZM535.725 134L538.623 116.545H549.566L549.191 118.812H540.881L539.995 124.131H547.734L547.359 126.389H539.62L538.734 131.733H547.146L546.771 134H535.725ZM550.186 134L553.084 116.545H559.305C560.658 116.545 561.74 116.778 562.553 117.244C563.371 117.705 563.933 118.347 564.24 119.17C564.553 119.989 564.621 120.937 564.445 122.017C564.263 123.085 563.879 124.023 563.294 124.83C562.714 125.636 561.939 126.267 560.967 126.722C560.001 127.17 558.842 127.395 557.49 127.395H552.777L553.169 125.128H557.643C558.501 125.128 559.217 125.006 559.791 124.761C560.365 124.517 560.814 124.162 561.138 123.696C561.467 123.23 561.683 122.67 561.786 122.017C561.893 121.352 561.862 120.781 561.692 120.304C561.521 119.821 561.189 119.452 560.695 119.196C560.2 118.935 559.521 118.804 558.658 118.804H555.351L552.82 134H550.186ZM560.107 126.125L563.115 134H560.115L557.183 126.125H560.107ZM566.643 116.545H569.635L572.891 124.48H573.087L578.942 116.545H581.933L573.845 127.148L572.703 134H570.078L571.212 127.148L566.643 116.545ZM584.286 118.812L584.661 116.545H598.169L597.794 118.812H592.348L589.825 134H587.2L589.723 118.812H584.286ZM603.788 116.545L600.89 134H598.256L601.154 116.545H603.788ZM607.623 116.545H610.819L614.143 130.114H614.347L622.137 116.545H625.333L622.435 134H619.93L622.035 121.369H621.873L614.629 133.974H612.54L609.506 121.361H609.344L607.231 134H604.725L607.623 116.545ZM626.264 134L629.162 116.545H640.105L639.73 118.812H631.42L630.534 124.131H638.273L637.898 126.389H630.159L629.273 131.733H637.685L637.31 134H626.264ZM646.631 116.545L644.347 128.98H641.995L643.827 116.545H646.631ZM642.549 134.162C642.072 134.162 641.674 133.997 641.356 133.668C641.043 133.338 640.89 132.935 640.896 132.457C640.901 131.986 641.077 131.591 641.424 131.273C641.776 130.949 642.185 130.787 642.651 130.787C643.117 130.787 643.515 130.952 643.844 131.281C644.174 131.611 644.327 132.003 644.305 132.457C644.288 132.776 644.197 133.065 644.032 133.327C643.873 133.582 643.663 133.787 643.401 133.94C643.14 134.088 642.856 134.162 642.549 134.162Z" fill="#1E1E1E"/>
</g>
<defs>
<clipPath id="clip0_1_2">
<rect width="739" height="163" rx="10" fill="white"/>
</clipPath>
</defs>
</svg>
